<svg width="20" height="20" viewBox="0 0 20 20" fill="none" xmlns="http://www.w3.org/2000/svg">
<path opacity="0.4" d="M9.99908 19.9982C9.23008 19.9982 8.46208 19.7062 7.87508 19.1232L7.14508 18.3932C6.86208 18.1112 6.48308 17.9552 6.08108 17.9542H5.05408C3.39408 17.9542 2.04308 16.6032 2.04308 14.9432V13.9152C2.04208 13.5142 1.88608 13.1352 1.60308 12.8502L0.885077 12.1332C-0.290923 10.9642 -0.295923 9.05321 0.874077 7.87621L1.60408 7.14521C1.88608 6.86221 2.04208 6.48321 2.04308 6.08121V5.05521C2.04308 3.39421 3.39408 2.04321 5.05408 2.04321H6.08208C6.48308 2.04321 6.86108 1.88721 7.14608 1.60221L7.86508 0.885209C9.03408 -0.290791 10.9441 -0.296791 12.1221 0.874209L12.8521 1.60421C13.1361 1.88721 13.5141 2.04321 13.9151 2.04321H14.9431C16.6031 2.04321 17.9541 3.39421 17.9541 5.05521V6.08221C17.9551 6.48321 18.1111 6.86221 18.3941 7.14721L19.1121 7.86521C19.6811 8.43121 19.9961 9.18521 19.9991 9.99021C20.0011 10.7902 19.6931 11.5432 19.1321 12.1122C19.1221 12.1222 19.1131 12.1332 19.1031 12.1422L18.3931 12.8522C18.1111 13.1352 17.9551 13.5142 17.9541 13.9162V14.9432C17.9541 16.6032 16.6031 17.9542 14.9431 17.9542H13.9151C13.5141 17.9552 13.1351 18.1112 12.8511 18.3942L12.1321 19.1122C11.5461 19.7022 10.7721 19.9982 9.99908 19.9982Z" fill="#75759E"/>
</svg>
