<svg width="8" height="8" viewBox="0 0 8 8" fill="none" xmlns="http://www.w3.org/2000/svg">
<path fill-rule="evenodd" clip-rule="evenodd" d="M2.04282 2.05089C1.87782 2.21589 1.66382 2.30489 1.42682 2.30489C1.20482 2.30489 0.986819 2.21389 0.811819 2.04989C0.645819 1.88489 0.551819 1.65889 0.551819 1.42989C0.551819 1.21189 0.643819 0.98789 0.805819 0.81489C0.894819 0.72489 1.00082 0.65689 1.10682 0.62089C1.40882 0.48289 1.80982 0.56389 2.04782 0.81389C2.13282 0.89889 2.19782 0.99189 2.24082 1.08889C2.28782 1.19289 2.31182 1.31089 2.31182 1.42989C2.31182 1.66789 2.21682 1.88889 2.04282 2.05089ZM7.19052 0.80979C6.84952 0.46979 6.29452 0.46979 5.95352 0.80979L0.813519 5.94979C0.472519 6.29079 0.472519 6.84579 0.813519 7.18779C0.979519 7.35279 1.19852 7.44379 1.43252 7.44379C1.66652 7.44379 1.88552 7.35279 2.05052 7.18779L7.19052 2.04779C7.53152 1.70579 7.53152 1.15179 7.19052 0.80979ZM6.90582 5.76389C6.58182 5.62789 6.19782 5.70189 5.94182 5.95789C5.88882 6.01989 5.81382 6.11589 5.76282 6.22889C5.70882 6.35089 5.70182 6.48189 5.70182 6.56989C5.70182 6.65789 5.70882 6.78789 5.76282 6.90989C5.81282 7.02189 5.87282 7.11289 5.95182 7.19189C6.13282 7.35989 6.34282 7.44489 6.57682 7.44489C6.79882 7.44489 7.01682 7.35489 7.19582 7.18789C7.35482 7.02889 7.44182 6.80889 7.44182 6.56989C7.44182 6.32989 7.35482 6.11089 7.19482 5.95089C7.10682 5.86389 7.00082 5.79589 6.90582 5.76389Z" fill="#75759E"/>
</svg>
