<svg width="8" height="6" viewBox="0 0 8 6" fill="none" xmlns="http://www.w3.org/2000/svg">
<path d="M3.34025 5.70127C3.30642 5.66831 3.16175 5.54386 3.04275 5.42793C2.29433 4.74827 1.06933 2.97526 0.695417 2.04727C0.635333 1.90634 0.508167 1.55003 0.5 1.35966C0.5 1.17724 0.542 1.00335 0.627167 0.837413C0.746167 0.630561 0.933417 0.464625 1.1545 0.373701C1.30792 0.315169 1.767 0.224245 1.77517 0.224245C2.27742 0.133321 3.0935 0.083313 3.99533 0.083313C4.85458 0.083313 5.63742 0.133321 6.14725 0.207765C6.15542 0.216289 6.72592 0.307213 6.92133 0.406661C7.27833 0.589077 7.5 0.945385 7.5 1.3267V1.35966C7.49125 1.60799 7.26958 2.13024 7.26142 2.13024C6.88692 3.00822 5.722 4.74032 4.94792 5.43645C4.94792 5.43645 4.749 5.63251 4.62475 5.71775C4.44625 5.85073 4.22517 5.91665 4.00408 5.91665C3.75733 5.91665 3.5275 5.8422 3.34025 5.70127Z" fill="#696974"/>
</svg>
