<svg width="24" height="18" viewBox="0 0 24 18" fill="none" xmlns="http://www.w3.org/2000/svg">
<path opacity="0.4" fill-rule="evenodd" clip-rule="evenodd" d="M12 0C19.5157 0 23.7244 8.2 23.9248 8.6C24.0251 8.8 24.0251 9.2 23.9248 9.4C23.7244 9.8 19.5157 18 12 18C4.92586 18 0.78149 10.7351 0.151837 9.6314C0.112538 9.56251 0.0869305 9.51762 0.0751566 9.5C-0.0250522 9.2 -0.0250522 8.9 0.0751566 8.6C0.275574 8.2 4.48434 0 12 0ZM2.07933 9C3.08142 10.6 6.58873 16 12 16C17.4113 16 20.9186 10.6 21.9207 9C20.9186 7.4 17.4113 2 12 2C6.58873 2 2.98121 7.4 2.07933 9ZM12 5C9.79541 5 7.99165 6.8 7.99165 9C7.99165 11.2 9.79541 13 12 13C14.2046 13 16.0084 11.2 16.0084 9C16.0084 6.8 14.2046 5 12 5ZM9.99582 9C9.99582 10.1 10.8977 11 12 11C13.1023 11 14.0042 10.1 14.0042 9C14.0042 7.9 13.1023 7 12 7C10.8977 7 9.99582 7.9 9.99582 9Z" fill="#061E5B"/>
</svg>
