<svg width="18" height="18" viewBox="0 0 18 18" fill="none" xmlns="http://www.w3.org/2000/svg">
<path fill-rule="evenodd" clip-rule="evenodd" d="M1.09835 11.5984C1.80161 10.8951 2.75544 10.5 3.75 10.5H9.75C10.7446 10.5 11.6984 10.8951 12.4017 11.5984C13.1049 12.3016 13.5 13.2554 13.5 14.25V15.75C13.5 16.1642 13.1642 16.5 12.75 16.5C12.3358 16.5 12 16.1642 12 15.75V14.25C12 13.6533 11.7629 13.081 11.341 12.659C10.919 12.2371 10.3467 12 9.75 12H3.75C3.15326 12 2.58097 12.2371 2.15901 12.659C1.73705 13.081 1.5 13.6533 1.5 14.25V15.75C1.5 16.1642 1.16421 16.5 0.75 16.5C0.335786 16.5 0 16.1642 0 15.75V14.25C0 13.2554 0.395088 12.3016 1.09835 11.5984Z" fill="white"/>
<path fill-rule="evenodd" clip-rule="evenodd" d="M6.75 3C5.50736 3 4.5 4.00736 4.5 5.25C4.5 6.49264 5.50736 7.5 6.75 7.5C7.99264 7.5 9 6.49264 9 5.25C9 4.00736 7.99264 3 6.75 3ZM3 5.25C3 3.17893 4.67893 1.5 6.75 1.5C8.82107 1.5 10.5 3.17893 10.5 5.25C10.5 7.32107 8.82107 9 6.75 9C4.67893 9 3 7.32107 3 5.25Z" fill="white"/>
<path fill-rule="evenodd" clip-rule="evenodd" d="M14.2738 11.16C14.3774 10.7589 14.7864 10.5177 15.1875 10.6213C15.992 10.829 16.7047 11.298 17.2138 11.9547C17.7228 12.6114 17.9994 13.4185 18 14.2494L18 15.75C18 16.1642 17.6642 16.5 17.25 16.5C16.8358 16.5 16.5 16.1642 16.5 15.75V14.2505C16.5 14.2505 16.5 14.2506 16.5 14.2505C16.4996 13.7521 16.3337 13.2677 16.0283 12.8737C15.7228 12.4797 15.2952 12.1983 14.8125 12.0737C14.4114 11.9701 14.1703 11.561 14.2738 11.16Z" fill="white"/>
<path fill-rule="evenodd" clip-rule="evenodd" d="M11.2734 2.16144C11.3762 1.76017 11.7848 1.51817 12.186 1.62091C12.9927 1.82744 13.7076 2.29657 14.2182 2.95432C14.7288 3.61208 15.0059 4.42106 15.0059 5.25372C15.0059 6.08638 14.7288 6.89536 14.2182 7.55312C13.7076 8.21088 12.9927 8.68 12.186 8.88653C11.7848 8.98927 11.3762 8.74727 11.2734 8.346C11.1707 7.94473 11.4127 7.53615 11.814 7.43341C12.298 7.30949 12.7269 7.02801 13.0333 6.63336C13.3396 6.2387 13.5059 5.75332 13.5059 5.25372C13.5059 4.75413 13.3396 4.26874 13.0333 3.87408C12.7269 3.47943 12.298 3.19795 11.814 3.07403C11.4127 2.97129 11.1707 2.56271 11.2734 2.16144Z" fill="white"/>
</svg>
