<svg width="10" height="10" viewBox="0 0 10 10" fill="none" xmlns="http://www.w3.org/2000/svg">
<path fill-rule="evenodd" clip-rule="evenodd" d="M4.58331 1.66665C2.97248 1.66665 1.66665 2.97248 1.66665 4.58331C1.66665 6.19414 2.97248 7.49998 4.58331 7.49998C6.19414 7.49998 7.49998 6.19414 7.49998 4.58331C7.49998 2.97248 6.19414 1.66665 4.58331 1.66665ZM0.833313 4.58331C0.833313 2.51224 2.51224 0.833313 4.58331 0.833313C6.65438 0.833313 8.33331 2.51224 8.33331 4.58331C8.33331 6.65438 6.65438 8.33331 4.58331 8.33331C2.51224 8.33331 0.833313 6.65438 0.833313 4.58331Z" fill="#001431"/>
<path fill-rule="evenodd" clip-rule="evenodd" d="M6.64285 6.64285C6.80557 6.48013 7.06939 6.48013 7.23211 6.64285L9.04461 8.45535C9.20733 8.61807 9.20733 8.88189 9.04461 9.04461C8.88189 9.20733 8.61807 9.20733 8.45535 9.04461L6.64285 7.23211C6.48013 7.06939 6.48013 6.80557 6.64285 6.64285Z" fill="#001431"/>
</svg>
