<svg width="18" height="18" viewBox="0 0 18 18" fill="none" xmlns="http://www.w3.org/2000/svg">
<path d="M3.78 14.4H5.58C5.679 14.4 5.76 14.319 5.76 14.22V3.78C5.76 3.681 5.679 3.6 5.58 3.6H3.78C3.681 3.6 3.6 3.681 3.6 3.78V14.22C3.6 14.319 3.681 14.4 3.78 14.4ZM8.1 8.1H9.9C9.999 8.1 10.08 8.019 10.08 7.92V3.78C10.08 3.681 9.999 3.6 9.9 3.6H8.1C8.001 3.6 7.92 3.681 7.92 3.78V7.92C7.92 8.019 8.001 8.1 8.1 8.1ZM12.42 9.72H14.22C14.319 9.72 14.4 9.639 14.4 9.54V3.78C14.4 3.681 14.319 3.6 14.22 3.6H12.42C12.321 3.6 12.24 3.681 12.24 3.78V9.54C12.24 9.639 12.321 9.72 12.42 9.72ZM17.28 0H0.72C0.32175 0 0 0.32175 0 0.72V17.28C0 17.6783 0.32175 18 0.72 18H17.28C17.6783 18 18 17.6783 18 17.28V0.72C18 0.32175 17.6783 0 17.28 0ZM16.38 16.38H1.62V1.62H16.38V16.38Z" fill="white"/>
</svg>
